<?xml version="1.0" standalone="no"?>
<!DOCTYPE svg PUBLIC "-//W3C//DTD SVG 20010904//EN"
 "http://www.w3.org/TR/2001/REC-SVG-20010904/DTD/svg10.dtd">
<svg version="1.0" xmlns="http://www.w3.org/2000/svg"
 width="1024.000000pt" height="1024.000000pt" viewBox="0 0 1024.000000 1024.000000"
 preserveAspectRatio="xMidYMid meet">
<metadata>
Created by potrace 1.14, written by Peter Selinger 2001-2017
</metadata>
<g transform="translate(0.000000,1024.000000) scale(0.100000,-0.100000)"
fill="#000000" stroke="none">
<path d="M4849 9796 c-2 -2 -60 -7 -129 -11 -69 -3 -141 -8 -160 -10 -97 -8
-167 -16 -180 -20 -8 -2 -35 -6 -60 -9 -25 -3 -56 -8 -70 -10 -14 -3 -41 -7
-60 -10 -57 -9 -91 -16 -165 -32 -38 -8 -79 -16 -90 -18 -64 -12 -334 -87
-375 -103 -8 -4 -17 -7 -20 -8 -77 -19 -372 -140 -500 -205 -136 -68 -327
-177 -374 -213 -6 -4 -47 -33 -91 -64 -197 -139 -470 -389 -616 -563 -29 -36
-56 -67 -59 -70 -9 -9 -145 -193 -181 -245 -52 -73 -180 -289 -223 -373 -20
-40 -41 -81 -46 -90 -55 -101 -178 -406 -239 -594 -55 -170 -128 -451 -157
-605 -2 -13 -6 -33 -8 -45 -22 -113 -35 -192 -51 -307 -3 -30 -8 -62 -10 -72
-2 -10 -7 -49 -10 -86 -4 -37 -9 -77 -11 -88 -2 -11 -6 -54 -10 -95 -3 -41 -7
-97 -10 -125 -26 -304 -26 -983 1 -1340 8 -103 16 -191 20 -210 2 -11 7 -47
10 -80 3 -33 7 -71 9 -85 3 -14 7 -47 10 -75 3 -27 8 -61 10 -75 2 -14 10 -59
16 -100 7 -41 14 -82 15 -90 2 -8 13 -62 25 -120 174 -869 541 -1607 1060
-2131 69 -69 159 -155 200 -190 94 -80 300 -235 334 -251 15 -6 26 -15 26 -20
0 -4 4 -8 9 -8 5 0 51 -26 102 -59 111 -69 362 -193 509 -252 424 -169 890
-269 1415 -306 217 -16 861 -7 950 12 11 3 47 7 80 9 59 5 196 23 245 32 14 2
41 7 60 10 157 24 435 92 620 151 256 82 528 204 765 345 90 54 244 158 290
195 6 4 28 21 50 37 22 17 42 32 45 35 3 4 43 38 90 78 163 137 354 346 504
548 36 50 71 95 76 102 6 7 10 15 10 18 0 3 5 11 10 18 43 51 188 305 267 467
127 261 234 556 318 875 27 101 88 392 100 475 4 24 8 47 10 50 1 3 6 28 9 55
4 28 11 79 16 115 5 36 12 88 15 115 3 28 7 66 10 85 2 19 7 71 10 115 4 44 8
96 10 115 27 252 27 1021 0 1340 -16 194 -16 195 -40 395 -3 22 -7 51 -10 64
-2 14 -7 45 -10 70 -3 25 -7 55 -9 66 -2 11 -11 61 -20 110 -145 800 -431
1467 -854 1998 -57 70 -110 136 -120 146 -203 213 -319 322 -447 418 -225 170
-411 284 -640 392 -116 55 -120 57 -203 90 -151 62 -478 165 -582 185 -14 3
-68 14 -120 26 -52 12 -104 23 -115 25 -279 43 -325 49 -460 60 -38 4 -88 9
-110 11 -46 6 -681 15 -686 10z"/>
</g>
</svg>
